<?xml version="1.0" encoding="utf-8"?>
<!-- Generator: Adobe Illustrator 21.0.2, SVG Export Plug-In . SVG Version: 6.00 Build 0)  -->
<svg version="1.1" xmlns="http://www.w3.org/2000/svg" xmlns:xlink="http://www.w3.org/1999/xlink" x="0px" y="0px"
	 viewBox="0 0 200 200" style="enable-background:new 0 0 200 200;" xml:space="preserve">
<style type="text/css">
	.st0{display:none;}
	.st1{display:inline;}
	.st2{fill:#FF3F71;}
	.st3{display:inline;fill:none;stroke:#FFFFFF;stroke-width:8;stroke-linecap:round;stroke-linejoin:round;stroke-miterlimit:10;}
	.st4{fill:none;stroke:#000000;stroke-width:8;stroke-linecap:round;stroke-linejoin:round;stroke-miterlimit:10;}
</style>
<g id="图层_1" class="st0">
	<g class="st1">
		<path d="M100,10.1l0.3,0c4.5,0,8.7,1.8,11.7,5.1c26.2,28,65.5,70.1,69.3,74.3c1.1,1.6,1.3,2.5,1.3,3.9l0,0.7l0,0.1v0.1
			c0,0.2,0,0.4,0,0.6c-0.2,5.6-4.7,10-10.3,10H168h-8v8v65.7c0,6.3-6,11.4-13.4,11.4c-7.4,0-13.5-5.1-13.5-11.4v-65.7v-8h-8h-24.8
			h-0.7H74.9h-8v8v65.7c0,6.3-6,11.4-13.4,11.4C46,190,40,184.9,40,178.6v-65.7v-8h-8h-4.4c-5.7,0-10.3-4.6-10.3-10.3v-1.1
			c0-1.5,0.2-2.3,1.3-4c3.8-4.2,43.1-46.3,69.3-74.2c3.1-3.3,7.3-5.1,11.8-5.1L100,10.1 M100.3,2c-0.1,0-0.2,0-0.3,0
			c-0.1,0-0.2,0-0.3,0c0,0,0,0,0,0v0.1c-6.4,0-12.7,2.5-17.6,7.6c0,0-69.4,74.1-69.8,74.8c-2.3,3.2-2.9,5.6-3,8.8c0,0,0,1.1,0,1.2
			c0,10.1,8.2,18.3,18.3,18.3H32v65.7c0,10.7,9.6,19.4,21.5,19.4c11.8,0,21.4-8.7,21.4-19.4v-65.7h24.8h0.7h24.8v65.7
			c0,10.7,9.6,19.4,21.5,19.4c11.8,0,21.4-8.7,21.4-19.4v-65.7h4.4c10.1,0,18.3-8.2,18.3-18.3c0-0.1,0-0.2,0-0.3l0-0.9
			c-0.1-3.2-0.7-5.6-3-8.8c-0.4-0.7-69.8-74.8-69.8-74.8C113.1,4.6,106.7,2.1,100.3,2L100.3,2C100.3,2,100.3,2,100.3,2L100.3,2z"/>
	</g>
</g>
<g id="图层_4" class="st0">
	<g class="st1">
		<path class="st2" d="M190.7,93.3c-0.1-3.2-0.7-5.6-3-8.8c-0.4-0.7-69.8-74.8-69.8-74.8c-4.8-5.1-11.2-7.6-17.6-7.6V2
			c-0.1,0-0.2,0-0.3,0c-0.1,0-0.2,0-0.3,0v0.1c-6.4,0-12.7,2.5-17.6,7.6c0,0-69.4,74.1-69.8,74.8c-2.3,3.2-2.9,5.6-3,8.8
			c0,0,0,1.1,0,1.2c0,10.1,8.2,18.3,18.3,18.3H32v65.7c0,10.7,9.6,19.4,21.5,19.4c11.8,0,21.4-8.7,21.4-19.4v-65.7h24.8h0.7h24.8
			v65.7c0,10.7,9.6,19.4,21.5,19.4s21.4-8.7,21.4-19.4v-65.7h4.4c10.1,0,18.3-8.2,18.3-18.3c0-0.1,0-0.2,0-0.3L190.7,93.3z"/>
	</g>
	<line class="st3" x1="46" y1="75.4" x2="83.3" y2="33.7"/>
</g>
<g id="图层_2">
	<g>
		<path class="st4" d="M141.7,16.5c2.6,0,5.3,0.1,8.2,0.4c17.8,1.7,38.3,18.1,40.8,49.5v10.4c-2.3,30-24.9,60.1-90.7,106.6
			C34.2,137,11.6,106.9,9.3,76.9V66.5c2.5-31.4,23-47.8,40.8-49.5c2.9-0.3,5.7-0.4,8.2-0.4c20.5,0,30.4,11.9,41.7,25.5
			C111.3,28.4,121.1,16.5,141.7,16.5"/>
	</g>
	<g>
		<path class="st4" d="M130,29.5 M143.7,33.9c17.1-0.5,29,13.9,29.2,30.9"/>
	</g>
	<path class="st4" d="M172.9,78.3c0.6,1.5-0.4,6.3-1.8,7.9"/>
</g>
</svg>
