<?xml version="1.0" encoding="utf-8"?>
<!-- Generator: Adobe Illustrator 21.0.2, SVG Export Plug-In . SVG Version: 6.00 Build 0)  -->
<svg version="1.1" id="图层_1" xmlns="http://www.w3.org/2000/svg" xmlns:xlink="http://www.w3.org/1999/xlink" x="0px" y="0px"
	 viewBox="0 0 200 200" style="enable-background:new 0 0 200 200;" xml:space="preserve">
<g>
	<path d="M100,10.1l0.3,0c4.5,0,8.7,1.8,11.7,5.1c26.2,28,65.5,70.1,69.3,74.3c1.1,1.6,1.3,2.5,1.3,3.9l0,0.7l0,0.1v0.1
		c0,0.2,0,0.4,0,0.6c-0.2,5.6-4.7,10-10.3,10H168h-8v8l0,65.7c0,6.3-6,11.4-13.4,11.4c-7.4,0-13.5-5.1-13.5-11.4v-65.7v-8h-8h-24.8
		h-0.7H74.9h-8v8v65.7c0,6.3-6,11.4-13.4,11.4C46,190,40,184.9,40,178.6v-65.7v-8h-8h-4.4c-5.7,0-10.3-4.6-10.3-10.3v-1.1
		c0-1.5,0.2-2.3,1.3-4c3.8-4.2,43.1-46.3,69.3-74.2c3.1-3.3,7.3-5.1,11.8-5.1L100,10.1 M100.3,2c-0.1,0-0.2,0-0.3,0
		c-0.1,0-0.2,0-0.3,0c0,0,0,0,0,0v0.1c-6.4,0-12.7,2.5-17.6,7.6c0,0-69.4,74.1-69.8,74.8c-2.3,3.2-2.9,5.6-3,8.8c0,0,0,1.1,0,1.2
		c0,10.1,8.2,18.3,18.3,18.3H32v65.7c0,10.7,9.6,19.4,21.5,19.4c11.8,0,21.4-8.7,21.4-19.4v-65.7h24.8h0.7h24.8v65.7
		c0,10.7,9.6,19.4,21.5,19.4s21.4-8.7,21.4-19.4l0-65.7h4.4c10.1,0,18.3-8.2,18.3-18.3c0-0.1,0-0.2,0-0.3l0-0.9
		c-0.1-3.2-0.7-5.6-3-8.8c-0.4-0.7-69.8-74.8-69.8-74.8C113.1,4.6,106.7,2.1,100.3,2L100.3,2C100.3,2,100.3,2,100.3,2L100.3,2z"/>
</g>
</svg>
