<?xml version="1.0" encoding="utf-8"?>
<!-- Generator: Adobe Illustrator 21.0.2, SVG Export Plug-In . SVG Version: 6.00 Build 0)  -->
<svg version="1.1" id="图层_1" xmlns="http://www.w3.org/2000/svg" xmlns:xlink="http://www.w3.org/1999/xlink" x="0px" y="0px"
	 viewBox="0 0 200 200" style="enable-background:new 0 0 200 200;" xml:space="preserve">
<style type="text/css">
	.st0{fill:#FF3F71;}
	.st1{fill:none;stroke:#FFFFFF;stroke-width:8;stroke-linecap:round;stroke-linejoin:round;stroke-miterlimit:10;}
</style>
<g>
	<path class="st0" d="M190.7,93.3c-0.1-3.2-0.7-5.6-3-8.8c-0.4-0.7-69.8-74.8-69.8-74.8c-4.8-5.1-11.2-7.6-17.6-7.6V2
		c-0.1,0-0.2,0-0.3,0c-0.1,0-0.2,0-0.3,0v0.1c-6.4,0-12.7,2.5-17.6,7.6c0,0-69.4,74.1-69.8,74.8c-2.3,3.2-2.9,5.6-3,8.8
		c0,0,0,1.1,0,1.2c0,10.1,8.2,18.3,18.3,18.3H32v65.7c0,10.7,9.6,19.4,21.5,19.4c11.8,0,21.4-8.7,21.4-19.4v-65.7h24.8h0.7h24.8
		v65.7c0,10.7,9.6,19.4,21.5,19.4s21.4-8.7,21.4-19.4v-65.7h4.4c10.1,0,18.3-8.2,18.3-18.3c0-0.1,0-0.2,0-0.3L190.7,93.3z"/>
</g>
<line class="st1" x1="46" y1="75.4" x2="83.3" y2="33.7"/>
</svg>
