<?xml version="1.0" encoding="utf-8"?>
<!-- Generator: Adobe Illustrator 21.0.2, SVG Export Plug-In . SVG Version: 6.00 Build 0)  -->
<svg version="1.1" xmlns="http://www.w3.org/2000/svg" xmlns:xlink="http://www.w3.org/1999/xlink" x="0px" y="0px"
	 viewBox="0 0 200 200" style="enable-background:new 0 0 200 200;" xml:space="preserve">
<style type="text/css">
	.st0{display:none;}
	.st1{display:inline;}
	.st2{fill:#FF3F71;}
	.st3{display:inline;fill:none;stroke:#FFFFFF;stroke-width:8;stroke-linecap:round;stroke-linejoin:round;stroke-miterlimit:10;}
	.st4{fill:none;stroke:#000000;stroke-width:8;stroke-linecap:round;stroke-linejoin:round;stroke-miterlimit:10;}
	.st5{display:inline;fill:none;stroke:#000000;stroke-width:8;stroke-linecap:round;stroke-linejoin:round;stroke-miterlimit:10;}
	.st6{fill:none;stroke:#FFFFFF;stroke-width:8;stroke-linecap:round;stroke-linejoin:round;stroke-miterlimit:10;}
	.st7{display:inline;fill:none;stroke:#000000;stroke-width:8;stroke-miterlimit:10;}
	.st8{display:inline;fill:#FF3F71;}
	.st9{display:inline;fill:none;stroke:#FF3F71;stroke-width:8;stroke-miterlimit:10;}
	.st10{fill:none;stroke:#000000;stroke-width:8;stroke-linejoin:round;stroke-miterlimit:10;}
	.st11{display:inline;fill:#FFFDFE;}
</style>
<g id="图层_1" class="st0">
	<g class="st1">
		<path d="M100,10.1l0.3,0c4.5,0,8.7,1.8,11.7,5.1c26.2,28,65.5,70.1,69.3,74.3c1.1,1.6,1.3,2.5,1.3,3.9l0,0.7l0,0.1v0.1
			c0,0.2,0,0.4,0,0.6c-0.2,5.6-4.7,10-10.3,10H168h-8v8v65.7c0,6.3-6,11.4-13.4,11.4c-7.4,0-13.5-5.1-13.5-11.4v-65.7v-8h-8h-24.8
			h-0.7H74.9h-8v8v65.7c0,6.3-6,11.4-13.4,11.4C46,190,40,184.9,40,178.6v-65.7v-8h-8h-4.4c-5.7,0-10.3-4.6-10.3-10.3v-1.1
			c0-1.5,0.2-2.3,1.3-4c3.8-4.2,43.1-46.3,69.3-74.2c3.1-3.3,7.3-5.1,11.8-5.1L100,10.1 M100.3,2c-0.1,0-0.2,0-0.3,0
			c-0.1,0-0.2,0-0.3,0c0,0,0,0,0,0v0.1c-6.4,0-12.7,2.5-17.6,7.6c0,0-69.4,74.1-69.8,74.8c-2.3,3.2-2.9,5.6-3,8.8c0,0,0,1.1,0,1.2
			c0,10.1,8.2,18.3,18.3,18.3H32v65.7c0,10.7,9.6,19.4,21.5,19.4c11.8,0,21.4-8.7,21.4-19.4v-65.7h24.8h0.7h24.8v65.7
			c0,10.7,9.6,19.4,21.5,19.4c11.8,0,21.4-8.7,21.4-19.4v-65.7h4.4c10.1,0,18.3-8.2,18.3-18.3c0-0.1,0-0.2,0-0.3l0-0.9
			c-0.1-3.2-0.7-5.6-3-8.8c-0.4-0.7-69.8-74.8-69.8-74.8C113.1,4.6,106.7,2.1,100.3,2L100.3,2C100.3,2,100.3,2,100.3,2L100.3,2z"/>
	</g>
</g>
<g id="图层_4" class="st0">
	<g class="st1">
		<path class="st2" d="M190.7,93.3c-0.1-3.2-0.7-5.6-3-8.8c-0.4-0.7-69.8-74.8-69.8-74.8c-4.8-5.1-11.2-7.6-17.6-7.6V2
			c-0.1,0-0.2,0-0.3,0c-0.1,0-0.2,0-0.3,0v0.1c-6.4,0-12.7,2.5-17.6,7.6c0,0-69.4,74.1-69.8,74.8c-2.3,3.2-2.9,5.6-3,8.8
			c0,0,0,1.1,0,1.2c0,10.1,8.2,18.3,18.3,18.3H32v65.7c0,10.7,9.6,19.4,21.5,19.4c11.8,0,21.4-8.7,21.4-19.4v-65.7h24.8h0.7h24.8
			v65.7c0,10.7,9.6,19.4,21.5,19.4s21.4-8.7,21.4-19.4v-65.7h4.4c10.1,0,18.3-8.2,18.3-18.3c0-0.1,0-0.2,0-0.3L190.7,93.3z"/>
	</g>
	<line class="st3" x1="46" y1="75.4" x2="83.3" y2="33.7"/>
</g>
<g id="图层_2" class="st0">
	<g class="st1">
		<path class="st4" d="M141.7,16.5c2.6,0,5.3,0.1,8.2,0.4c17.8,1.7,38.3,18.1,40.8,49.5v10.4c-2.3,30-24.9,60.1-90.7,106.6
			C34.2,137,11.6,106.9,9.3,76.9V66.5c2.5-31.4,23-47.8,40.8-49.5c2.9-0.3,5.7-0.4,8.2-0.4c20.5,0,30.4,11.9,41.7,25.5
			C111.3,28.4,121.1,16.5,141.7,16.5"/>
	</g>
	<g class="st1">
		<path class="st4" d="M130,29.5 M143.7,33.9c17.1-0.5,29,13.9,29.2,30.9"/>
	</g>
	<path class="st5" d="M172.9,78.3c0.6,1.5-0.4,6.3-1.8,7.9"/>
</g>
<g id="图层_5" class="st0">
	<g class="st1">
		<path class="st2" d="M143.3,12.3c2.7,0,5.5,0.1,8.5,0.4c18.5,1.8,39.9,19.8,42.5,52.4V76c-2.4,31-25.6,64-93.2,111.8
			c-0.7,0.5-1.6,0.5-2.3,0C31.3,140,8.1,107,5.7,76V65.2c2.6-32.6,24-50.6,42.5-52.4c3-0.3,5.9-0.4,8.5-0.4
			c21.4,0,31.6,9.4,43.3,23.4C111.7,21.7,122,12.3,143.3,12.3"/>
	</g>
	<g class="st1">
		<path class="st6" d="M129.9,29.5 M143.6,33.9c17.1-0.5,29,13.9,29.2,30.9"/>
	</g>
	<path class="st3" d="M172.9,78.3c0.6,1.5-0.4,6.3-1.8,7.9"/>
</g>
<g id="图层_6_1_" class="st0">
	<g class="st1">
		<path d="M100,14.5c47.1,0,85.5,38.4,85.5,85.5s-38.4,85.5-85.5,85.5S14.5,147.1,14.5,100S52.9,14.5,100,14.5 M100,6.5
			C48.4,6.5,6.5,48.4,6.5,100s41.9,93.5,93.5,93.5s93.5-41.9,93.5-93.5S151.6,6.5,100,6.5L100,6.5z"/>
	</g>
	<g class="st1">
		<path d="M100,58.4c14.1,0,25.6,11.5,25.6,25.6c0,14.1-11.5,25.6-25.6,25.6S74.4,98.2,74.4,84C74.4,69.9,85.9,58.4,100,58.4
			 M100,50.4c-18.6,0-33.6,15.1-33.6,33.6s15.1,33.6,33.6,33.6s33.6-15.1,33.6-33.6S118.6,50.4,100,50.4L100,50.4z"/>
	</g>
	<path class="st7" d="M26.7,155.5c0,0,29.1-26.2,71.2-26.2s74.6,26.2,74.6,26.2"/>
</g>
<g id="图层_7" class="st0">
	<g class="st1">
		<path class="st2" d="M100,14.5c47.1,0,85.5,38.4,85.5,85.5s-38.4,85.5-85.5,85.5S14.5,147.1,14.5,100S52.9,14.5,100,14.5 M100,6.5
			C48.4,6.5,6.5,48.4,6.5,100s41.9,93.5,93.5,93.5s93.5-41.9,93.5-93.5S151.6,6.5,100,6.5L100,6.5z"/>
	</g>
	<circle class="st8" cx="100" cy="84" r="33.6"/>
	<path class="st9" d="M26.7,155.5c0,0,29.1-26.2,71.2-26.2s74.6,26.2,74.6,26.2"/>
	<path class="st8" d="M166.8,156.8c0,15.3-42.2,31.8-67.9,31.8c-36,0-67.1-17.7-67.1-33s31.2-22.2,67.1-22.2
		S166.8,141.5,166.8,156.8z"/>
</g>
<g id="图层_8">
	<path class="st10" d="M10.6,50.2V31.6c0-4.2,3.4-7.6,7.6-7.6h163.4c4.2,0,7.6,3.4,7.6,7.6v116.9c0,4.2-3.4,7.6-7.6,7.6h-54
		l-19.9,25c-1.6,1.7-4.2,1.7-5.8,0l-22.3-25H18.3c-4.2,0-7.6-3.4-7.6-7.6V83"/>
	<rect x="56.7" y="65.7" width="56" height="10.3"/>
	<rect x="56.7" y="103.3" width="83.1" height="10"/>
</g>
<g id="图层_8_x5F_复制" class="st0">
	<path class="st8" d="M10.6,50.2V31.6c0-4.2,3.4-7.6,7.6-7.6h163.4c4.2,0,7.6,3.4,7.6,7.6v116.9c0,4.2-3.4,7.6-7.6,7.6h-54l-19.9,25
		c-1.6,1.7-4.2,1.7-5.8,0l-22.3-25H18.3c-4.2,0-7.6-3.4-7.6-7.6V83"/>
	<rect x="56.7" y="65.7" class="st11" width="56" height="10.3"/>
	<rect x="56.7" y="103.3" class="st11" width="83.1" height="10"/>
</g>
</svg>
